<?xml version="1.0" encoding="UTF-8"?>
<svg id="Filled" xmlns="http://www.w3.org/2000/svg" version="1.1" viewBox="0 0 512 512">
  <!-- Generator: Adobe Illustrator 29.8.2, SVG Export Plug-In . SVG Version: 2.1.1 Build 3)  -->
  <defs>
    <style>
      .st0 {
        fill: #9d5ba5;
      }
    </style>
  </defs>
  <path class="st0" d="M431.11,440.66c44.6-.02,80.75-36.17,80.79-80.77v-207.79c0-44.57-36.11-80.71-80.68-80.73-17.18,0-33.91,5.47-47.77,15.64l-80.62,59.18c-3.26-44.45-41.94-77.85-86.39-74.59-15.11,1.11-29.61,6.45-41.82,15.41L32.95,190.9c-35.94,26.39-43.67,76.91-17.29,112.85,4.85,6.61,10.68,12.44,17.29,17.29l141.67,103.89c35.94,26.36,86.45,18.59,112.81-17.35,8.95-12.21,14.29-26.69,15.41-41.79l80.62,59.18c13.81,10.17,30.51,15.66,47.66,15.68h0Z"/>
</svg>