<?xml version="1.0" encoding="UTF-8"?>
<svg id="Layer_1" xmlns="http://www.w3.org/2000/svg" version="1.1" viewBox="0 0 512 512">
  <!-- Generator: Adobe Illustrator 29.8.2, SVG Export Plug-In . SVG Version: 2.1.1 Build 3)  -->
  <defs>
    <style>
      .st0 {
        fill: #9d5ba5;
      }
    </style>
  </defs>
  <path class="st0" d="M505.75,475.58c8.34,8.34,8.34,21.82,0,30.17-4.16,4.16-9.62,6.25-15.08,6.25s-10.92-2.09-15.08-6.25L6.25,36.42C-2.09,28.07-2.09,14.59,6.25,6.25c8.34-8.34,21.82-8.34,30.17,0l98.73,98.73C173.7,52.5,231.23,16.15,295,4.42c6.14-1.19,12.65.53,17.49,4.59,4.89,4.05,7.68,10.07,7.68,16.41v264.62l36.01,36.01c38.53-38.76,38.46-101.61-.21-140.29-8.34-8.34-8.34-21.82,0-30.17,8.34-8.34,21.82-8.34,30.17,0,55.3,55.3,55.38,145.24.21,200.62l30.72,30.72c70.74-74.26,69.67-192.23-3.24-265.17-8.34-8.34-8.34-21.82,0-30.17s21.82-8.34,30.17,0c89.56,89.56,90.65,234.6,3.24,325.5l58.5,58.5h.02ZM.19,213.33v85.33c0,58.82,47.85,106.67,106.67,106.67h27.07c38.55,53.38,96.64,90.39,161.09,102.25,1.28.23,2.56.36,3.86.36,4.95,0,9.79-1.73,13.65-4.93,4.89-4.05,7.68-10.07,7.68-16.41v-76.35L40.13,130.2C15.79,149.76.19,179.75.19,213.33Z"/>
</svg>